<svg xmlns="http://www.w3.org/2000/svg" style="" viewBox="0 0 48 48"><g class="nc-icon-wrapper"><path d="M24 1C11.3 1 1 11.3 1 24C1 36.7 11.3 47 24 47C36.7 47 47 36.7 47 24C47 11.3 36.7 1 24 1Z" fill="url(#nc-ui-6-0_linear_215_87)"></path> <path d="M36.7 16.7L20.7 32.7C20.5 32.9 20.3 33 20 33C19.7 33 19.5 32.9 19.3 32.7L11.3 24.7C10.9 24.3 10.9 23.7 11.3 23.3C11.7 22.9 12.3 22.9 12.7 23.3L20 30.6L35.3 15.3C35.7 14.9 36.3 14.9 36.7 15.3C37.1 15.7 37.1 16.3 36.7 16.7Z" fill="url(#nc-ui-6-1_linear_215_87)"></path> <defs> <linearGradient id="nc-ui-6-0_linear_215_87" x1="24" y1="1" x2="24" y2="47" gradientUnits="userSpaceOnUse"> <stop stop-color="#D8F3E0"></stop> <stop offset="1" stop-color="#9EE0B1"></stop> </linearGradient> <linearGradient id="nc-ui-6-1_linear_215_87" x1="24" y1="15" x2="24" y2="33" gradientUnits="userSpaceOnUse"> <stop stop-color="#6AD084"></stop> <stop offset="1" stop-color="#3CB34B"></stop> </linearGradient> </defs></g></svg>